<svg width="273" height="64" viewBox="0 0 273 64" fill="none" xmlns="http://www.w3.org/2000/svg">
<path d="M21.8435 31.2977V31.7029H22.2486V31.2977H21.8435ZM7.8859 24.5755H7.48078V24.9806H7.8859V24.5755ZM7.8859 21.9585L7.6451 21.6327L7.48078 21.7541V21.9585H7.8859ZM10.2464 20.2138V19.8087H10.1129L10.0056 19.888L10.2464 20.2138ZM26.821 47V47.4051H27.2261V47H26.821ZM21.8435 42.6383V43.0434H22.2486V42.6383H21.8435ZM21.8435 35.1976H22.2486V34.7925H21.8435V35.1976ZM13.1713 46.5949C10.5989 46.5949 8.74421 45.9562 7.52999 44.7498C6.31626 43.544 5.67397 41.7028 5.67397 39.1489H4.86374C4.86374 41.829 5.53852 43.9134 6.95894 45.3246C8.37887 46.7353 10.4754 47.4051 13.1713 47.4051V46.5949ZM5.67397 39.1489C5.67397 36.5949 6.31626 34.7538 7.52999 33.5479C8.74421 32.3416 10.5989 31.7029 13.1713 31.7029V30.8926C10.4754 30.8926 8.37887 31.5624 6.95894 32.9731C5.53852 34.3843 4.86374 36.4687 4.86374 39.1489H5.67397ZM13.1713 31.7029H21.8435V30.8926H13.1713V31.7029ZM22.2486 31.2977V27.5518H21.4384V31.2977H22.2486ZM22.2486 27.5518C22.2486 26.4972 21.9847 25.6319 21.3859 25.0331C20.7871 24.4343 19.9217 24.1704 18.8672 24.1704V24.9806C19.7969 24.9806 20.4197 25.2128 20.8129 25.606C21.2062 25.9993 21.4384 26.6221 21.4384 27.5518H22.2486ZM18.8672 24.1704H7.8859V24.9806H18.8672V24.1704ZM8.29101 24.5755V21.9585H7.48078V24.5755H8.29101ZM8.1267 22.2843L10.4872 20.5396L10.0056 19.888L7.6451 21.6327L8.1267 22.2843ZM10.2464 20.6189H18.9698V19.8087H10.2464V20.6189ZM18.9698 20.6189C21.5244 20.6189 23.366 21.2573 24.5717 22.463C25.7775 23.6688 26.4159 25.5103 26.4159 28.0649H27.2261C27.2261 25.3854 26.556 23.3014 25.1447 21.8901C23.7334 20.4788 21.6493 19.8087 18.9698 19.8087V20.6189ZM26.4159 28.0649V47H27.2261V28.0649H26.4159ZM26.821 46.5949H13.1713V47.4051H26.821V46.5949ZM9.84125 39.6107C9.84125 40.6823 10.1094 41.5605 10.7168 42.1678C11.3242 42.7752 12.2023 43.0434 13.2739 43.0434V42.2331C12.3272 42.2331 11.6915 41.9967 11.2897 41.5949C10.8879 41.1931 10.6515 40.5574 10.6515 39.6107H9.84125ZM13.2739 43.0434H21.8435V42.2331H13.2739V43.0434ZM22.2486 42.6383V35.1976H21.4384V42.6383H22.2486ZM21.8435 34.7925H13.2739V35.6028H21.8435V34.7925ZM13.2739 34.7925C12.2023 34.7925 11.3242 35.0607 10.7168 35.6681C10.1094 36.2754 9.84125 37.1536 9.84125 38.2252H10.6515C10.6515 37.2785 10.8879 36.6428 11.2897 36.241C11.6915 35.8392 12.3272 35.6028 13.2739 35.6028V34.7925ZM9.84125 38.2252V39.6107H10.6515V38.2252H9.84125ZM49.9097 20.2138L50.1505 19.888L50.0432 19.8087H49.9097V20.2138ZM52.2702 21.9585H52.6753V21.7541L52.511 21.6327L52.2702 21.9585ZM52.2702 24.5755V24.9806H52.6753V24.5755H52.2702ZM52.2702 42.6383H52.6753V42.2331H52.2702V42.6383ZM52.2702 45.2553L52.511 45.5811L52.6753 45.4596V45.2553H52.2702ZM49.9097 47V47.4051H50.0432L50.1505 47.3258L49.9097 47ZM32.56 39.0976V28.0649H31.7498V39.0976H32.56ZM32.56 28.0649C32.56 25.5103 33.1984 23.6688 34.4041 22.463C35.6099 21.2573 37.4514 20.6189 40.006 20.6189V19.8087C37.3265 19.8087 35.2425 20.4788 33.8312 21.8901C32.4199 23.3014 31.7498 25.3854 31.7498 28.0649H32.56ZM40.006 20.6189H49.9097V19.8087H40.006V20.6189ZM49.6689 20.5396L52.0294 22.2843L52.511 21.6327L50.1505 19.888L49.6689 20.5396ZM51.8651 21.9585V24.5755H52.6753V21.9585H51.8651ZM52.2702 24.1704H40.16V24.9806H52.2702V24.1704ZM40.16 24.1704C39.0901 24.1704 38.2129 24.4334 37.6053 25.0307C36.9964 25.6292 36.7273 26.4955 36.7273 27.5518H37.5375C37.5375 26.6239 37.773 26.002 38.1733 25.6085C38.5749 25.2137 39.2115 24.9806 40.16 24.9806V24.1704ZM36.7273 27.5518V39.6107H37.5375V27.5518H36.7273ZM36.7273 39.6107C36.7273 40.6823 36.9955 41.5605 37.6028 42.1678C38.2102 42.7752 39.0883 43.0434 40.16 43.0434V42.2331C39.2132 42.2331 38.5776 41.9967 38.1758 41.5949C37.7739 41.1931 37.5375 40.5574 37.5375 39.6107H36.7273ZM40.16 43.0434H52.2702V42.2331H40.16V43.0434ZM51.8651 42.6383V45.2553H52.6753V42.6383H51.8651ZM52.0294 44.9295L49.6689 46.6742L50.1505 47.3258L52.511 45.5811L52.0294 44.9295ZM49.9097 46.5949H40.006V47.4051H49.9097V46.5949ZM40.006 46.5949C37.4521 46.5949 35.6109 45.9526 34.4051 44.7389C33.1987 43.5246 32.56 41.6699 32.56 39.0976H31.7498C31.7498 41.7935 32.4196 43.89 33.8303 45.3099C35.2415 46.7303 37.3259 47.4051 40.006 47.4051V46.5949ZM56.571 47H56.1659V47.4051H56.571V47ZM56.571 9.02721V8.62209H56.1659V9.02721H56.571ZM61.5485 9.02721H61.9536V8.62209H61.5485V9.02721ZM61.5485 20.2138H61.1434V20.6189H61.5485V20.2138ZM78.9442 47V47.4051H79.3493V47H78.9442ZM73.9667 47H73.5615V47.4051H73.9667V47ZM61.5485 24.5755V24.1704H61.1434V24.5755H61.5485ZM61.5485 47V47.4051H61.9536V47H61.5485ZM56.9761 47V9.02721H56.1659V47H56.9761ZM56.571 9.43232H61.5485V8.62209H56.571V9.43232ZM61.1434 9.02721V20.2138H61.9536V9.02721H61.1434ZM61.5485 20.6189H71.093V19.8087H61.5485V20.6189ZM71.093 20.6189C73.6476 20.6189 75.4892 21.2573 76.6949 22.463C77.9007 23.6688 78.5391 25.5103 78.5391 28.0649H79.3493C79.3493 25.3854 78.6791 23.3014 77.2679 21.8901C75.8566 20.4788 73.7725 19.8087 71.093 19.8087V20.6189ZM78.5391 28.0649V47H79.3493V28.0649H78.5391ZM78.9442 46.5949H73.9667V47.4051H78.9442V46.5949ZM74.3718 47V27.5518H73.5615V47H74.3718ZM74.3718 27.5518C74.3718 26.4972 74.1079 25.6319 73.5091 25.0331C72.9102 24.4343 72.0449 24.1704 70.9904 24.1704V24.9806C71.9201 24.9806 72.5429 25.2128 72.9361 25.606C73.3294 25.9993 73.5615 26.6221 73.5615 27.5518H74.3718ZM70.9904 24.1704H61.5485V24.9806H70.9904V24.1704ZM61.1434 24.5755V47H61.9536V24.5755H61.1434ZM61.5485 46.5949H56.571V47.4051H61.5485V46.5949ZM106.648 35.4542V35.8593H107.054V35.4542H106.648ZM89.2528 35.4542V35.0491H88.8477V35.4542H89.2528ZM105.622 42.6383H106.027V42.2331H105.622V42.6383ZM105.622 45.2553L105.866 45.5785L106.027 45.457V45.2553H105.622ZM103.313 47V47.4051H103.449L103.557 47.3232L103.313 47ZM89.2528 31.5543H88.8477V31.9594H89.2528V31.5543ZM101.671 31.5543V31.9594H102.076V31.5543H101.671ZM84.6804 39.0976V28.0649H83.8702V39.0976H84.6804ZM84.6804 28.0649C84.6804 25.5103 85.3188 23.6688 86.5245 22.463C87.7303 21.2573 89.5718 20.6189 92.1264 20.6189V19.8087C89.4469 19.8087 87.3629 20.4788 85.9516 21.8901C84.5403 23.3014 83.8702 25.3854 83.8702 28.0649H84.6804ZM92.1264 20.6189H98.7973V19.8087H92.1264V20.6189ZM98.7973 20.6189C101.352 20.6189 103.193 21.2573 104.399 22.463C105.605 23.6688 106.243 25.5103 106.243 28.0649H107.054C107.054 25.3854 106.383 23.3014 104.972 21.8901C103.561 20.4788 101.477 19.8087 98.7973 19.8087V20.6189ZM106.243 28.0649V35.4542H107.054V28.0649H106.243ZM106.648 35.0491H89.2528V35.8593H106.648V35.0491ZM88.8477 35.4542V39.6107H89.6579V35.4542H88.8477ZM88.8477 39.6107C88.8477 40.6823 89.1159 41.5605 89.7232 42.1678C90.3306 42.7752 91.2087 43.0434 92.2804 43.0434V42.2331C91.3336 42.2331 90.698 41.9967 90.2961 41.5949C89.8943 41.1931 89.6579 40.5574 89.6579 39.6107H88.8477ZM92.2804 43.0434H105.622V42.2331H92.2804V43.0434ZM105.217 42.6383V45.2553H106.027V42.6383H105.217ZM105.378 44.9321L103.069 46.6768L103.557 47.3232L105.866 45.5785L105.378 44.9321ZM103.313 46.5949H92.1264V47.4051H103.313V46.5949ZM92.1264 46.5949C89.5725 46.5949 87.7313 45.9526 86.5255 44.7389C85.3191 43.5246 84.6804 41.6699 84.6804 39.0976H83.8702C83.8702 41.7935 84.54 43.89 85.9507 45.3099C87.3619 46.7303 89.4463 47.4051 92.1264 47.4051V46.5949ZM89.2528 31.9594H101.671V31.1492H89.2528V31.9594ZM102.076 31.5543V27.5518H101.266V31.5543H102.076ZM102.076 27.5518C102.076 26.4972 101.812 25.6319 101.213 25.0331C100.615 24.4343 99.7492 24.1704 98.6947 24.1704V24.9806C99.6243 24.9806 100.247 25.2128 100.64 25.606C101.034 25.9993 101.266 26.6221 101.266 27.5518H102.076ZM98.6947 24.1704H92.2804V24.9806H98.6947V24.1704ZM92.2804 24.1704C91.2104 24.1704 90.3333 24.4334 89.7257 25.0307C89.1168 25.6292 88.8477 26.4955 88.8477 27.5518H89.6579C89.6579 26.6239 89.8934 26.002 90.2937 25.6085C90.6953 25.2137 91.3319 24.9806 92.2804 24.9806V24.1704ZM88.8477 27.5518V31.5543H89.6579V27.5518H88.8477ZM112.199 47H111.794V47.4051H112.199V47ZM112.199 9.02721V8.62209H111.794V9.02721H112.199ZM117.177 9.02721H117.582V8.62209H117.177V9.02721ZM117.177 20.2138H116.772V20.6189H117.177V20.2138ZM117.177 42.6383H116.772V43.0434H117.177V42.6383ZM117.177 24.5755V24.1704H116.772V24.5755H117.177ZM112.604 47V9.02721H111.794V47H112.604ZM112.199 9.43232H117.177V8.62209H112.199V9.43232ZM116.772 9.02721V20.2138H117.582V9.02721H116.772ZM117.177 20.6189H126.721V19.8087H117.177V20.6189ZM126.721 20.6189C129.276 20.6189 131.117 21.2573 132.323 22.463C133.529 23.6688 134.167 25.5103 134.167 28.0649H134.978C134.978 25.3854 134.307 23.3014 132.896 21.8901C131.485 20.4788 129.401 19.8087 126.721 19.8087V20.6189ZM134.167 28.0649V39.0976H134.978V28.0649H134.167ZM134.167 39.0976C134.167 41.6699 133.529 43.5246 132.322 44.7389C131.116 45.9526 129.275 46.5949 126.721 46.5949V47.4051C129.401 47.4051 131.486 46.7303 132.897 45.3099C134.308 43.89 134.978 41.7935 134.978 39.0976H134.167ZM126.721 46.5949H112.199V47.4051H126.721V46.5949ZM117.177 43.0434H126.619V42.2331H117.177V43.0434ZM126.619 43.0434C127.675 43.0434 128.541 42.7742 129.14 42.1654C129.737 41.5578 130 40.6806 130 39.6107H129.19C129.19 40.5592 128.957 41.1958 128.562 41.5974C128.168 41.9977 127.546 42.2331 126.619 42.2331V43.0434ZM130 39.6107V27.5518H129.19V39.6107H130ZM130 27.5518C130 26.4972 129.736 25.6319 129.137 25.0331C128.538 24.4343 127.673 24.1704 126.619 24.1704V24.9806C127.548 24.9806 128.171 25.2128 128.564 25.606C128.958 25.9993 129.19 26.6221 129.19 27.5518H130ZM126.619 24.1704H117.177V24.9806H126.619V24.1704ZM116.772 24.5755V42.6383H117.582V24.5755H116.772ZM162.076 35.4542V35.8593H162.481V35.4542H162.076ZM144.681 35.4542V35.0491H144.275V35.4542H144.681ZM161.05 42.6383H161.455V42.2331H161.05V42.6383ZM161.05 45.2553L161.294 45.5785L161.455 45.457V45.2553H161.05ZM158.741 47V47.4051H158.877L158.985 47.3232L158.741 47ZM144.681 31.5543H144.275V31.9594H144.681V31.5543ZM157.099 31.5543V31.9594H157.504V31.5543H157.099ZM140.108 39.0976V28.0649H139.298V39.0976H140.108ZM140.108 28.0649C140.108 25.5103 140.747 23.6688 141.952 22.463C143.158 21.2573 145 20.6189 147.554 20.6189V19.8087C144.875 19.8087 142.791 20.4788 141.379 21.8901C139.968 23.3014 139.298 25.3854 139.298 28.0649H140.108ZM147.554 20.6189H154.225V19.8087H147.554V20.6189ZM154.225 20.6189C156.78 20.6189 158.621 21.2573 159.827 22.463C161.033 23.6688 161.671 25.5103 161.671 28.0649H162.481C162.481 25.3854 161.811 23.3014 160.4 21.8901C158.989 20.4788 156.905 19.8087 154.225 19.8087V20.6189ZM161.671 28.0649V35.4542H162.481V28.0649H161.671ZM162.076 35.0491H144.681V35.8593H162.076V35.0491ZM144.275 35.4542V39.6107H145.086V35.4542H144.275ZM144.275 39.6107C144.275 40.6823 144.544 41.5605 145.151 42.1678C145.758 42.7752 146.636 43.0434 147.708 43.0434V42.2331C146.761 42.2331 146.126 41.9967 145.724 41.5949C145.322 41.1931 145.086 40.5574 145.086 39.6107H144.275ZM147.708 43.0434H161.05V42.2331H147.708V43.0434ZM160.645 42.6383V45.2553H161.455V42.6383H160.645ZM160.806 44.9321L158.497 46.6768L158.985 47.3232L161.294 45.5785L160.806 44.9321ZM158.741 46.5949H147.554V47.4051H158.741V46.5949ZM147.554 46.5949C145 46.5949 143.159 45.9526 141.953 44.7389C140.747 43.5246 140.108 41.6699 140.108 39.0976H139.298C139.298 41.7935 139.968 43.89 141.378 45.3099C142.79 46.7303 144.874 47.4051 147.554 47.4051V46.5949ZM144.681 31.9594H157.099V31.1492H144.681V31.9594ZM157.504 31.5543V27.5518H156.694V31.5543H157.504ZM157.504 27.5518C157.504 26.4972 157.24 25.6319 156.641 25.0331C156.042 24.4343 155.177 24.1704 154.122 24.1704V24.9806C155.052 24.9806 155.675 25.2128 156.068 25.606C156.461 25.9993 156.694 26.6221 156.694 27.5518H157.504ZM154.122 24.1704H147.708V24.9806H154.122V24.1704ZM147.708 24.1704C146.638 24.1704 145.761 24.4334 145.153 25.0307C144.545 25.6292 144.275 26.4955 144.275 27.5518H145.086C145.086 26.6239 145.321 26.002 145.721 25.6085C146.123 25.2137 146.76 24.9806 147.708 24.9806V24.1704ZM144.275 27.5518V31.5543H145.086V27.5518H144.275ZM167.576 47H167.171V47.4051H167.576V47ZM167.576 40.9449V40.5398H167.171V40.9449H167.576ZM173.323 40.9449H173.728V40.5398H173.323V40.9449ZM173.323 47V47.4051H173.728V47H173.323ZM167.981 47V40.9449H167.171V47H167.981ZM167.576 41.35H173.323V40.5398H167.576V41.35ZM172.918 40.9449V47H173.728V40.9449H172.918ZM173.323 46.5949H167.576V47.4051H173.323V46.5949ZM179.155 47H178.75V47.4051H179.155V47ZM179.155 20.2138V19.8087H178.75V20.2138H179.155ZM201.528 47V47.4051H201.933V47H201.528ZM196.55 47H196.145V47.4051H196.55V47ZM184.132 24.5755V24.1704H183.727V24.5755H184.132ZM184.132 47V47.4051H184.537V47H184.132ZM179.56 47V20.2138H178.75V47H179.56ZM179.155 20.6189H193.677V19.8087H179.155V20.6189ZM193.677 20.6189C196.231 20.6189 198.073 21.2573 199.279 22.463C200.484 23.6688 201.123 25.5103 201.123 28.0649H201.933C201.933 25.3854 201.263 23.3014 199.852 21.8901C198.44 20.4788 196.356 19.8087 193.677 19.8087V20.6189ZM201.123 28.0649V47H201.933V28.0649H201.123ZM201.528 46.5949H196.55V47.4051H201.528V46.5949ZM196.956 47V27.5518H196.145V47H196.956ZM196.956 27.5518C196.956 26.4972 196.692 25.6319 196.093 25.0331C195.494 24.4343 194.629 24.1704 193.574 24.1704V24.9806C194.504 24.9806 195.127 25.2128 195.52 25.606C195.913 25.9993 196.145 26.6221 196.145 27.5518H196.956ZM193.574 24.1704H184.132V24.9806H193.574V24.1704ZM183.727 24.5755V47H184.537V24.5755H183.727ZM184.132 46.5949H179.155V47.4051H184.132V46.5949ZM229.232 35.4542V35.8593H229.637V35.4542H229.232ZM211.837 35.4542V35.0491H211.431V35.4542H211.837ZM228.206 42.6383H228.611V42.2331H228.206V42.6383ZM228.206 45.2553L228.45 45.5785L228.611 45.457V45.2553H228.206ZM225.897 47V47.4051H226.033L226.141 47.3232L225.897 47ZM211.837 31.5543H211.431V31.9594H211.837V31.5543ZM224.255 31.5543V31.9594H224.66V31.5543H224.255ZM207.264 39.0976V28.0649H206.454V39.0976H207.264ZM207.264 28.0649C207.264 25.5103 207.902 23.6688 209.108 22.463C210.314 21.2573 212.156 20.6189 214.71 20.6189V19.8087C212.031 19.8087 209.947 20.4788 208.535 21.8901C207.124 23.3014 206.454 25.3854 206.454 28.0649H207.264ZM214.71 20.6189H221.381V19.8087H214.71V20.6189ZM221.381 20.6189C223.936 20.6189 225.777 21.2573 226.983 22.463C228.189 23.6688 228.827 25.5103 228.827 28.0649H229.637C229.637 25.3854 228.967 23.3014 227.556 21.8901C226.145 20.4788 224.061 19.8087 221.381 19.8087V20.6189ZM228.827 28.0649V35.4542H229.637V28.0649H228.827ZM229.232 35.0491H211.837V35.8593H229.232V35.0491ZM211.431 35.4542V39.6107H212.242V35.4542H211.431ZM211.431 39.6107C211.431 40.6823 211.7 41.5605 212.307 42.1678C212.914 42.7752 213.792 43.0434 214.864 43.0434V42.2331C213.917 42.2331 213.282 41.9967 212.88 41.5949C212.478 41.1931 212.242 40.5574 212.242 39.6107H211.431ZM214.864 43.0434H228.206V42.2331H214.864V43.0434ZM227.801 42.6383V45.2553H228.611V42.6383H227.801ZM227.962 44.9321L225.652 46.6768L226.141 47.3232L228.45 45.5785L227.962 44.9321ZM225.897 46.5949H214.71V47.4051H225.897V46.5949ZM214.71 46.5949C212.156 46.5949 210.315 45.9526 209.109 44.7389C207.903 43.5246 207.264 41.6699 207.264 39.0976H206.454C206.454 41.7935 207.124 43.89 208.534 45.3099C209.946 46.7303 212.03 47.4051 214.71 47.4051V46.5949ZM211.837 31.9594H224.255V31.1492H211.837V31.9594ZM224.66 31.5543V27.5518H223.85V31.5543H224.66ZM224.66 27.5518C224.66 26.4972 224.396 25.6319 223.797 25.0331C223.198 24.4343 222.333 24.1704 221.278 24.1704V24.9806C222.208 24.9806 222.831 25.2128 223.224 25.606C223.617 25.9993 223.85 26.6221 223.85 27.5518H224.66ZM221.278 24.1704H214.864V24.9806H221.278V24.1704ZM214.864 24.1704C213.794 24.1704 212.917 24.4334 212.309 25.0307C211.701 25.6292 211.431 26.4955 211.431 27.5518H212.242C212.242 26.6239 212.477 26.002 212.877 25.6085C213.279 25.2137 213.916 24.9806 214.864 24.9806V24.1704ZM211.431 27.5518V31.5543H212.242V27.5518H211.431ZM234.578 11.5929V11.1878H234.173V11.5929H234.578ZM239.555 11.5929H239.96V11.1878H239.555V11.5929ZM239.555 20.2138H239.15V20.6189H239.555V20.2138ZM249.048 20.2138H249.454V19.8087H249.048V20.2138ZM249.048 24.5755V24.9806H249.454V24.5755H249.048ZM239.555 24.5755V24.1704H239.15V24.5755H239.555ZM249.562 42.6383H249.967V42.2331H249.562V42.6383ZM249.562 45.2553L249.802 45.5811L249.967 45.4596V45.2553H249.562ZM247.201 47V47.4051H247.335L247.442 47.3258L247.201 47ZM234.983 39.0976V11.5929H234.173V39.0976H234.983ZM234.578 11.998H239.555V11.1878H234.578V11.998ZM239.15 11.5929V20.2138H239.96V11.5929H239.15ZM239.555 20.6189H249.048V19.8087H239.555V20.6189ZM248.643 20.2138V24.5755H249.454V20.2138H248.643ZM249.048 24.1704H239.555V24.9806H249.048V24.1704ZM239.15 24.5755V39.6107H239.96V24.5755H239.15ZM239.15 39.6107C239.15 40.6823 239.418 41.5605 240.026 42.1678C240.633 42.7752 241.511 43.0434 242.583 43.0434V42.2331C241.636 42.2331 241 41.9967 240.599 41.5949C240.197 41.1931 239.96 40.5574 239.96 39.6107H239.15ZM242.583 43.0434H249.562V42.2331H242.583V43.0434ZM249.156 42.6383V45.2553H249.967V42.6383H249.156ZM249.321 44.9295L246.96 46.6742L247.442 47.3258L249.802 45.5811L249.321 44.9295ZM247.201 46.5949H242.429V47.4051H247.201V46.5949ZM242.429 46.5949C239.875 46.5949 238.034 45.9526 236.828 44.7389C235.622 43.5246 234.983 41.6699 234.983 39.0976H234.173C234.173 41.7935 234.842 43.89 236.253 45.3099C237.664 46.7303 239.749 47.4051 242.429 47.4051V46.5949Z" fill="url(#paint0_linear_19_2237)"/>
<path d="M10.4682 47C5.19988 47 2.56573 44.383 2.56573 39.1489C2.56573 33.9148 5.19988 31.2977 10.4682 31.2977H19.1403V27.5518C19.1403 25.5676 18.1483 24.5755 16.1641 24.5755H5.18277V21.9585L7.54324 20.2138H16.2667C21.5008 20.2138 24.1179 22.8308 24.1179 28.0649V47H10.4682ZM7.54324 39.6107C7.54324 41.6291 8.55243 42.6383 10.5708 42.6383H19.1403V35.1976H10.5708C8.55243 35.1976 7.54324 36.2068 7.54324 38.2252V39.6107ZM29.4518 39.0976V28.0649C29.4518 22.8308 32.0688 20.2138 37.3029 20.2138H47.2066L49.5671 21.9585V24.5755H37.4568C35.4385 24.5755 34.4293 25.5676 34.4293 27.5518V39.6107C34.4293 41.6291 35.4385 42.6383 37.4568 42.6383H49.5671V45.2553L47.2066 47H37.3029C32.0688 47 29.4518 44.3659 29.4518 39.0976ZM53.8679 47V9.02721H58.8454V20.2138H68.3899C73.624 20.2138 76.2411 22.8308 76.2411 28.0649V47H71.2635V27.5518C71.2635 25.5676 70.2715 24.5755 68.2873 24.5755H58.8454V47H53.8679ZM81.5722 39.0976V28.0649C81.5722 22.8308 84.1892 20.2138 89.4233 20.2138H96.0942C101.328 20.2138 103.945 22.8308 103.945 28.0649V35.4542H86.5497V39.6107C86.5497 41.6291 87.5589 42.6383 89.5772 42.6383H102.919V45.2553L100.61 47H89.4233C84.1892 47 81.5722 44.3659 81.5722 39.0976ZM86.5497 31.5543H98.9678V27.5518C98.9678 25.5676 97.9757 24.5755 95.9916 24.5755H89.5772C87.5589 24.5755 86.5497 25.5676 86.5497 27.5518V31.5543ZM109.496 47V9.02721H114.474V20.2138H124.018C129.252 20.2138 131.869 22.8308 131.869 28.0649V39.0976C131.869 44.3659 129.252 47 124.018 47H109.496ZM114.474 42.6383H123.916C125.9 42.6383 126.892 41.6291 126.892 39.6107V27.5518C126.892 25.5676 125.9 24.5755 123.916 24.5755H114.474V42.6383ZM137 39.0976V28.0649C137 22.8308 139.617 20.2138 144.851 20.2138H151.522C156.756 20.2138 159.373 22.8308 159.373 28.0649V35.4542H141.977V39.6107C141.977 41.6291 142.987 42.6383 145.005 42.6383H158.347V45.2553L156.038 47H144.851C139.617 47 137 44.3659 137 39.0976ZM141.977 31.5543H154.396V27.5518C154.396 25.5676 153.403 24.5755 151.419 24.5755H145.005C142.987 24.5755 141.977 25.5676 141.977 27.5518V31.5543ZM164.873 47V40.9449H170.62V47H164.873ZM176.452 47V20.2138H190.974C196.208 20.2138 198.825 22.8308 198.825 28.0649V47H193.847V27.5518C193.847 25.5676 192.855 24.5755 190.871 24.5755H181.429V47H176.452ZM204.156 39.0976V28.0649C204.156 22.8308 206.773 20.2138 212.007 20.2138H218.678C223.912 20.2138 226.529 22.8308 226.529 28.0649V35.4542H209.133V39.6107C209.133 41.6291 210.143 42.6383 212.161 42.6383H225.503V45.2553L223.194 47H212.007C206.773 47 204.156 44.3659 204.156 39.0976ZM209.133 31.5543H221.552V27.5518C221.552 25.5676 220.559 24.5755 218.575 24.5755H212.161C210.143 24.5755 209.133 25.5676 209.133 27.5518V31.5543ZM231.875 39.0976V11.5929H236.852V20.2138H246.345V24.5755H236.852V39.6107C236.852 41.6291 237.861 42.6383 239.88 42.6383H246.858V45.2553L244.498 47H239.726C234.492 47 231.875 44.3659 231.875 39.0976Z" fill="url(#paint1_linear_19_2237)"/>
<defs>
<linearGradient id="paint0_linear_19_2237" x1="-41.9331" y1="32" x2="369.712" y2="32" gradientUnits="userSpaceOnUse">
<stop offset="0.0983331" stop-color="#FFF1FA"/>
<stop offset="0.938333" stop-color="#60132C"/>
</linearGradient>
<linearGradient id="paint1_linear_19_2237" x1="-44.6362" y1="32" x2="367.009" y2="32" gradientUnits="userSpaceOnUse">
<stop offset="0.0983331" stop-color="#FFF1FA"/>
<stop offset="0.938333" stop-color="#60132C"/>
</linearGradient>
</defs>
</svg>
