<svg width="202" height="48" viewBox="0 0 202 48" fill="none" xmlns="http://www.w3.org/2000/svg">
<path d="M16.174 23.372V23.672H16.474V23.372H16.174ZM5.838 18.394H5.538V18.694H5.838V18.394ZM5.838 16.456L5.65968 16.2147L5.538 16.3047V16.456H5.838ZM7.586 15.164V14.864H7.48716L7.40768 14.9227L7.586 15.164ZM19.86 35V35.3H20.16V35H19.86ZM16.174 31.77V32.07H16.474V31.77H16.174ZM16.174 26.26H16.474V25.96H16.174V26.26ZM9.752 34.7C7.84709 34.7 6.4736 34.227 5.57444 33.3337C4.67564 32.4407 4.2 31.0773 4.2 29.186H3.6C3.6 31.1707 4.0997 32.7143 5.15156 33.7593C6.20306 34.804 7.75558 35.3 9.752 35.3V34.7ZM4.2 29.186C4.2 27.2947 4.67564 25.9313 5.57444 25.0383C6.4736 24.145 7.84709 23.672 9.752 23.672V23.072C7.75558 23.072 6.20306 23.568 5.15156 24.6127C4.0997 25.6577 3.6 27.2013 3.6 29.186H4.2ZM9.752 23.672H16.174V23.072H9.752V23.672ZM16.474 23.372V20.598H15.874V23.372H16.474ZM16.474 20.598C16.474 19.8171 16.2786 19.1763 15.8351 18.7329C15.3917 18.2894 14.7509 18.094 13.97 18.094V18.694C14.6584 18.694 15.1196 18.8659 15.4109 19.1571C15.7021 19.4484 15.874 19.9096 15.874 20.598H16.474ZM13.97 18.094H5.838V18.694H13.97V18.094ZM6.138 18.394V16.456H5.538V18.394H6.138ZM6.01632 16.6973L7.76432 15.4053L7.40768 14.9227L5.65968 16.2147L6.01632 16.6973ZM7.586 15.464H14.046V14.864H7.586V15.464ZM14.046 15.464C15.9378 15.464 17.3015 15.9367 18.1944 16.8296C19.0873 17.7225 19.56 19.0862 19.56 20.978H20.16C20.16 18.9938 19.6637 17.4505 18.6186 16.4054C17.5735 15.3603 16.0302 14.864 14.046 14.864V15.464ZM19.56 20.978V35H20.16V20.978H19.56ZM19.86 34.7H9.752V35.3H19.86V34.7ZM7.286 29.528C7.286 30.3216 7.4846 30.9719 7.93437 31.4216C8.38414 31.8714 9.03442 32.07 9.828 32.07V31.47C9.12691 31.47 8.6562 31.2949 8.35863 30.9974C8.06107 30.6998 7.886 30.2291 7.886 29.528H7.286ZM9.828 32.07H16.174V31.47H9.828V32.07ZM16.474 31.77V26.26H15.874V31.77H16.474ZM16.174 25.96H9.828V26.56H16.174V25.96ZM9.828 25.96C9.03442 25.96 8.38414 26.1586 7.93437 26.6084C7.4846 27.0581 7.286 27.7084 7.286 28.502H7.886C7.886 27.8009 8.06107 27.3302 8.35863 27.0326C8.6562 26.7351 9.12691 26.56 9.828 26.56V25.96ZM7.286 28.502V29.528H7.886V28.502H7.286ZM36.9579 15.164L37.1362 14.9227L37.0568 14.864H36.9579V15.164ZM38.7059 16.456H39.0059V16.3047L38.8842 16.2147L38.7059 16.456ZM38.7059 18.394V18.694H39.0059V18.394H38.7059ZM38.7059 31.77H39.0059V31.47H38.7059V31.77ZM38.7059 33.708L38.8842 33.9493L39.0059 33.8593V33.708H38.7059ZM36.9579 35V35.3H37.0568L37.1362 35.2413L36.9579 35ZM24.1099 29.148V20.978H23.5099V29.148H24.1099ZM24.1099 20.978C24.1099 19.0862 24.5827 17.7225 25.4756 16.8296C26.3685 15.9367 27.7322 15.464 29.6239 15.464V14.864C27.6397 14.864 26.0964 15.3603 25.0513 16.4054C24.0062 17.4505 23.5099 18.9938 23.5099 20.978H24.1099ZM29.6239 15.464H36.9579V14.864H29.6239V15.464ZM36.7796 15.4053L38.5276 16.6973L38.8842 16.2147L37.1362 14.9227L36.7796 15.4053ZM38.4059 16.456V18.394H39.0059V16.456H38.4059ZM38.7059 18.094H29.7379V18.694H38.7059V18.094ZM29.7379 18.094C28.9456 18.094 28.296 18.2888 27.8461 18.7311C27.3952 19.1743 27.1959 19.8158 27.1959 20.598H27.7959C27.7959 19.9109 27.9703 19.4504 28.2667 19.1589C28.5641 18.8666 29.0356 18.694 29.7379 18.694V18.094ZM27.1959 20.598V29.528H27.7959V20.598H27.1959ZM27.1959 29.528C27.1959 30.3216 27.3945 30.9719 27.8443 31.4216C28.2941 31.8714 28.9443 32.07 29.7379 32.07V31.47C29.0368 31.47 28.5661 31.2949 28.2686 30.9974C27.971 30.6998 27.7959 30.2291 27.7959 29.528H27.1959ZM29.7379 32.07H38.7059V31.47H29.7379V32.07ZM38.4059 31.77V33.708H39.0059V31.77H38.4059ZM38.5276 33.4667L36.7796 34.7587L37.1362 35.2413L38.8842 33.9493L38.5276 33.4667ZM36.9579 34.7H29.6239V35.3H36.9579V34.7ZM29.6239 34.7C27.7327 34.7 26.3692 34.2244 25.4762 33.3256C24.5829 32.4264 24.1099 31.0529 24.1099 29.148H23.5099C23.5099 31.1444 24.0059 32.6969 25.0506 33.7484C26.0956 34.8003 27.6392 35.3 29.6239 35.3V34.7ZM41.8908 35H41.5908V35.3H41.8908V35ZM41.8908 6.88V6.58H41.5908V6.88H41.8908ZM45.5768 6.88H45.8768V6.58H45.5768V6.88ZM45.5768 15.164H45.2768V15.464H45.5768V15.164ZM58.4588 35V35.3H58.7588V35H58.4588ZM54.7728 35H54.4728V35.3H54.7728V35ZM45.5768 18.394V18.094H45.2768V18.394H45.5768ZM45.5768 35V35.3H45.8768V35H45.5768ZM42.1908 35V6.88H41.5908V35H42.1908ZM41.8908 7.18H45.5768V6.58H41.8908V7.18ZM45.2768 6.88V15.164H45.8768V6.88H45.2768ZM45.5768 15.464H52.6448V14.864H45.5768V15.464ZM52.6448 15.464C54.5366 15.464 55.9003 15.9367 56.7932 16.8296C57.6861 17.7225 58.1588 19.0862 58.1588 20.978H58.7588C58.7588 18.9938 58.2625 17.4505 57.2174 16.4054C56.1723 15.3603 54.629 14.864 52.6448 14.864V15.464ZM58.1588 20.978V35H58.7588V20.978H58.1588ZM58.4588 34.7H54.7728V35.3H58.4588V34.7ZM55.0728 35V20.598H54.4728V35H55.0728ZM55.0728 20.598C55.0728 19.8171 54.8774 19.1763 54.4339 18.7329C53.9905 18.2894 53.3497 18.094 52.5688 18.094V18.694C53.2572 18.694 53.7184 18.8659 54.0097 19.1571C54.3009 19.4484 54.4728 19.9096 54.4728 20.598H55.0728ZM52.5688 18.094H45.5768V18.694H52.5688V18.094ZM45.2768 18.394V35H45.8768V18.394H45.2768ZM45.5768 34.7H41.8908V35.3H45.5768V34.7ZM78.9746 26.45V26.75H79.2746V26.45H78.9746ZM66.0926 26.45V26.15H65.7926V26.45H66.0926ZM78.2146 31.77H78.5146V31.47H78.2146V31.77ZM78.2146 33.708L78.3955 33.9474L78.5146 33.8573V33.708H78.2146ZM76.5046 35V35.3H76.6052L76.6855 35.2394L76.5046 35ZM66.0926 23.562H65.7926V23.862H66.0926V23.562ZM75.2886 23.562V23.862H75.5886V23.562H75.2886ZM62.7066 29.148V20.978H62.1066V29.148H62.7066ZM62.7066 20.978C62.7066 19.0862 63.1794 17.7225 64.0723 16.8296C64.9652 15.9367 66.3289 15.464 68.2206 15.464V14.864C66.2364 14.864 64.6931 15.3603 63.648 16.4054C62.6029 17.4505 62.1066 18.9938 62.1066 20.978H62.7066ZM68.2206 15.464H73.1606V14.864H68.2206V15.464ZM73.1606 15.464C75.0524 15.464 76.4161 15.9367 77.309 16.8296C78.2019 17.7225 78.6746 19.0862 78.6746 20.978H79.2746C79.2746 18.9938 78.7784 17.4505 77.7333 16.4054C76.6882 15.3603 75.1449 14.864 73.1606 14.864V15.464ZM78.6746 20.978V26.45H79.2746V20.978H78.6746ZM78.9746 26.15H66.0926V26.75H78.9746V26.15ZM65.7926 26.45V29.528H66.3926V26.45H65.7926ZM65.7926 29.528C65.7926 30.3216 65.9912 30.9719 66.441 31.4216C66.8908 31.8714 67.5411 32.07 68.3346 32.07V31.47C67.6336 31.47 67.1628 31.2949 66.8653 30.9974C66.5677 30.6998 66.3926 30.2291 66.3926 29.528H65.7926ZM68.3346 32.07H78.2146V31.47H68.3346V32.07ZM77.9146 31.77V33.708H78.5146V31.77H77.9146ZM78.0338 33.4686L76.3238 34.7606L76.6855 35.2394L78.3955 33.9474L78.0338 33.4686ZM76.5046 34.7H68.2206V35.3H76.5046V34.7ZM68.2206 34.7C66.3294 34.7 64.9659 34.2244 64.073 33.3256C63.1796 32.4264 62.7066 31.0529 62.7066 29.148H62.1066C62.1066 31.1444 62.6026 32.6969 63.6473 33.7484C64.6923 34.8003 66.2359 35.3 68.2206 35.3V34.7ZM66.0926 23.862H75.2886V23.262H66.0926V23.862ZM75.5886 23.562V20.598H74.9886V23.562H75.5886ZM75.5886 20.598C75.5886 19.8171 75.3932 19.1763 74.9498 18.7329C74.5063 18.2894 73.8655 18.094 73.0846 18.094V18.694C73.7731 18.694 74.2343 18.8659 74.5255 19.1571C74.8167 19.4484 74.9886 19.9096 74.9886 20.598H75.5886ZM73.0846 18.094H68.3346V18.694H73.0846V18.094ZM68.3346 18.094C67.5423 18.094 66.8928 18.2888 66.4428 18.7311C65.9919 19.1743 65.7926 19.8158 65.7926 20.598H66.3926C66.3926 19.9109 66.567 19.4504 66.8634 19.1589C67.1609 18.8666 67.6323 18.694 68.3346 18.694V18.094ZM65.7926 20.598V23.562H66.3926V20.598H65.7926ZM83.0852 35H82.7852V35.3H83.0852V35ZM83.0852 6.88V6.58H82.7852V6.88H83.0852ZM86.7712 6.88H87.0712V6.58H86.7712V6.88ZM86.7712 15.164H86.4712V15.464H86.7712V15.164ZM86.7712 31.77H86.4712V32.07H86.7712V31.77ZM86.7712 18.394V18.094H86.4712V18.394H86.7712ZM83.3852 35V6.88H82.7852V35H83.3852ZM83.0852 7.18H86.7712V6.58H83.0852V7.18ZM86.4712 6.88V15.164H87.0712V6.88H86.4712ZM86.7712 15.464H93.8392V14.864H86.7712V15.464ZM93.8392 15.464C95.7309 15.464 97.0946 15.9367 97.9875 16.8296C98.8804 17.7225 99.3532 19.0862 99.3532 20.978H99.9532C99.9532 18.9938 99.4569 17.4505 98.4118 16.4054C97.3667 15.3603 95.8234 14.864 93.8392 14.864V15.464ZM99.3532 20.978V29.148H99.9532V20.978H99.3532ZM99.3532 29.148C99.3532 31.0529 98.8802 32.4264 97.9868 33.3256C97.0939 34.2244 95.7304 34.7 93.8392 34.7V35.3C95.8239 35.3 97.3675 34.8003 98.4125 33.7484C99.4572 32.6969 99.9532 31.1444 99.9532 29.148H99.3532ZM93.8392 34.7H83.0852V35.3H93.8392V34.7ZM86.7712 32.07H93.7632V31.47H86.7712V32.07ZM93.7632 32.07C94.5454 32.07 95.1869 31.8707 95.6301 31.4198C96.0724 30.9699 96.2672 30.3203 96.2672 29.528H95.6672C95.6672 30.2304 95.4946 30.7018 95.2022 30.9992C94.9108 31.2956 94.4503 31.47 93.7632 31.47V32.07ZM96.2672 29.528V20.598H95.6672V29.528H96.2672ZM96.2672 20.598C96.2672 19.8171 96.0717 19.1763 95.6283 18.7329C95.1849 18.2894 94.5441 18.094 93.7632 18.094V18.694C94.4516 18.694 94.9128 18.8659 95.204 19.1571C95.4953 19.4484 95.6672 19.9096 95.6672 20.598H96.2672ZM93.7632 18.094H86.7712V18.694H93.7632V18.094ZM86.4712 18.394V31.77H87.0712V18.394H86.4712ZM120.021 26.45V26.75H120.321V26.45H120.021ZM107.139 26.45V26.15H106.839V26.45H107.139ZM119.261 31.77H119.561V31.47H119.261V31.77ZM119.261 33.708L119.441 33.9474L119.561 33.8573V33.708H119.261ZM117.551 35V35.3H117.651L117.731 35.2394L117.551 35ZM107.139 23.562H106.839V23.862H107.139V23.562ZM116.335 23.562V23.862H116.635V23.562H116.335ZM103.753 29.148V20.978H103.153V29.148H103.753ZM103.753 20.978C103.753 19.0862 104.225 17.7225 105.118 16.8296C106.011 15.9367 107.375 15.464 109.267 15.464V14.864C107.282 14.864 105.739 15.3603 104.694 16.4054C103.649 17.4505 103.153 18.9938 103.153 20.978H103.753ZM109.267 15.464H114.207V14.864H109.267V15.464ZM114.207 15.464C116.098 15.464 117.462 15.9367 118.355 16.8296C119.248 17.7225 119.721 19.0862 119.721 20.978H120.321C120.321 18.9938 119.824 17.4505 118.779 16.4054C117.734 15.3603 116.191 14.864 114.207 14.864V15.464ZM119.721 20.978V26.45H120.321V20.978H119.721ZM120.021 26.15H107.139V26.75H120.021V26.15ZM106.839 26.45V29.528H107.439V26.45H106.839ZM106.839 29.528C106.839 30.3216 107.037 30.9719 107.487 31.4216C107.937 31.8714 108.587 32.07 109.381 32.07V31.47C108.679 31.47 108.209 31.2949 107.911 30.9974C107.614 30.6998 107.439 30.2291 107.439 29.528H106.839ZM109.381 32.07H119.261V31.47H109.381V32.07ZM118.961 31.77V33.708H119.561V31.77H118.961ZM119.08 33.4686L117.37 34.7606L117.731 35.2394L119.441 33.9474L119.08 33.4686ZM117.551 34.7H109.267V35.3H117.551V34.7ZM109.267 34.7C107.375 34.7 106.012 34.2244 105.119 33.3256C104.226 32.4264 103.753 31.0529 103.753 29.148H103.153C103.153 31.1444 103.649 32.6969 104.693 33.7484C105.738 34.8003 107.282 35.3 109.267 35.3V34.7ZM107.139 23.862H116.335V23.262H107.139V23.862ZM116.635 23.562V20.598H116.035V23.562H116.635ZM116.635 20.598C116.635 19.8171 116.439 19.1763 115.996 18.7329C115.552 18.2894 114.911 18.094 114.131 18.094V18.694C114.819 18.694 115.28 18.8659 115.571 19.1571C115.863 19.4484 116.035 19.9096 116.035 20.598H116.635ZM114.131 18.094H109.381V18.694H114.131V18.094ZM109.381 18.094C108.588 18.094 107.939 18.2888 107.489 18.7311C107.038 19.1743 106.839 19.8158 106.839 20.598H107.439C107.439 19.9109 107.613 19.4504 107.909 19.1589C108.207 18.8666 108.678 18.694 109.381 18.694V18.094ZM106.839 20.598V23.562H107.439V20.598H106.839ZM124.093 35H123.793V35.3H124.093V35ZM124.093 30.516V30.216H123.793V30.516H124.093ZM128.349 30.516H128.649V30.216H128.349V30.516ZM128.349 35V35.3H128.649V35H128.349ZM124.393 35V30.516H123.793V35H124.393ZM124.093 30.816H128.349V30.216H124.093V30.816ZM128.049 30.516V35H128.649V30.516H128.049ZM128.349 34.7H124.093V35.3H128.349V34.7ZM132.668 35H132.368V35.3H132.668V35ZM132.668 15.164V14.864H132.368V15.164H132.668ZM149.236 35V35.3H149.536V35H149.236ZM145.55 35H145.25V35.3H145.55V35ZM136.354 18.394V18.094H136.054V18.394H136.354ZM136.354 35V35.3H136.654V35H136.354ZM132.968 35V15.164H132.368V35H132.968ZM132.668 15.464H143.422V14.864H132.668V15.464ZM143.422 15.464C145.314 15.464 146.677 15.9367 147.57 16.8296C148.463 17.7225 148.936 19.0862 148.936 20.978H149.536C149.536 18.9938 149.039 17.4505 147.994 16.4054C146.949 15.3603 145.406 14.864 143.422 14.864V15.464ZM148.936 20.978V35H149.536V20.978H148.936ZM149.236 34.7H145.55V35.3H149.236V34.7ZM145.85 35V20.598H145.25V35H145.85ZM145.85 20.598C145.85 19.8171 145.654 19.1763 145.211 18.7329C144.767 18.2894 144.127 18.094 143.346 18.094V18.694C144.034 18.694 144.495 18.8659 144.787 19.1571C145.078 19.4484 145.25 19.9096 145.25 20.598H145.85ZM143.346 18.094H136.354V18.694H143.346V18.094ZM136.054 18.394V35H136.654V18.394H136.054ZM136.354 34.7H132.668V35.3H136.354V34.7ZM169.752 26.45V26.75H170.052V26.45H169.752ZM156.87 26.45V26.15H156.57V26.45H156.87ZM168.992 31.77H169.292V31.47H168.992V31.77ZM168.992 33.708L169.172 33.9474L169.292 33.8573V33.708H168.992ZM167.282 35V35.3H167.382L167.462 35.2394L167.282 35ZM156.87 23.562H156.57V23.862H156.87V23.562ZM166.066 23.562V23.862H166.366V23.562H166.066ZM153.484 29.148V20.978H152.884V29.148H153.484ZM153.484 20.978C153.484 19.0862 153.956 17.7225 154.849 16.8296C155.742 15.9367 157.106 15.464 158.998 15.464V14.864C157.013 14.864 155.47 15.3603 154.425 16.4054C153.38 17.4505 152.884 18.9938 152.884 20.978H153.484ZM158.998 15.464H163.938V14.864H158.998V15.464ZM163.938 15.464C165.829 15.464 167.193 15.9367 168.086 16.8296C168.979 17.7225 169.452 19.0862 169.452 20.978H170.052C170.052 18.9938 169.555 17.4505 168.51 16.4054C167.465 15.3603 165.922 14.864 163.938 14.864V15.464ZM169.452 20.978V26.45H170.052V20.978H169.452ZM169.752 26.15H156.87V26.75H169.752V26.15ZM156.57 26.45V29.528H157.17V26.45H156.57ZM156.57 29.528C156.57 30.3216 156.768 30.9719 157.218 31.4216C157.668 31.8714 158.318 32.07 159.112 32.07V31.47C158.411 31.47 157.94 31.2949 157.642 30.9974C157.345 30.6998 157.17 30.2291 157.17 29.528H156.57ZM159.112 32.07H168.992V31.47H159.112V32.07ZM168.692 31.77V33.708H169.292V31.77H168.692ZM168.811 33.4686L167.101 34.7606L167.462 35.2394L169.172 33.9474L168.811 33.4686ZM167.282 34.7H158.998V35.3H167.282V34.7ZM158.998 34.7C157.106 34.7 155.743 34.2244 154.85 33.3256C153.957 32.4264 153.484 31.0529 153.484 29.148H152.884C152.884 31.1444 153.38 32.6969 154.424 33.7484C155.469 34.8003 157.013 35.3 158.998 35.3V34.7ZM156.87 23.862H166.066V23.262H156.87V23.862ZM166.366 23.562V20.598H165.766V23.562H166.366ZM166.366 20.598C166.366 19.8171 166.17 19.1763 165.727 18.7329C165.283 18.2894 164.643 18.094 163.862 18.094V18.694C164.55 18.694 165.011 18.8659 165.302 19.1571C165.594 19.4484 165.766 19.9096 165.766 20.598H166.366ZM163.862 18.094H159.112V18.694H163.862V18.094ZM159.112 18.094C158.319 18.094 157.67 18.2888 157.22 18.7311C156.769 19.1743 156.57 19.8158 156.57 20.598H157.17C157.17 19.9109 157.344 19.4504 157.64 19.1589C157.938 18.8666 158.409 18.694 159.112 18.694V18.094ZM156.57 20.598V23.562H157.17V20.598H156.57ZM173.71 8.78V8.48H173.41V8.78H173.71ZM177.396 8.78H177.696V8.48H177.396V8.78ZM177.396 15.164H177.096V15.464H177.396V15.164ZM184.426 15.164H184.726V14.864H184.426V15.164ZM184.426 18.394V18.694H184.726V18.394H184.426ZM177.396 18.394V18.094H177.096V18.394H177.396ZM184.806 31.77H185.106V31.47H184.806V31.77ZM184.806 33.708L184.984 33.9493L185.106 33.8593V33.708H184.806ZM183.058 35V35.3H183.157L183.236 35.2413L183.058 35ZM174.01 29.148V8.78H173.41V29.148H174.01ZM173.71 9.08H177.396V8.48H173.71V9.08ZM177.096 8.78V15.164H177.696V8.78H177.096ZM177.396 15.464H184.426V14.864H177.396V15.464ZM184.126 15.164V18.394H184.726V15.164H184.126ZM184.426 18.094H177.396V18.694H184.426V18.094ZM177.096 18.394V29.528H177.696V18.394H177.096ZM177.096 29.528C177.096 30.3216 177.295 30.9719 177.745 31.4216C178.194 31.8714 178.845 32.07 179.638 32.07V31.47C178.937 31.47 178.466 31.2949 178.169 30.9974C177.871 30.6998 177.696 30.2291 177.696 29.528H177.096ZM179.638 32.07H184.806V31.47H179.638V32.07ZM184.506 31.77V33.708H185.106V31.77H184.506ZM184.628 33.4667L182.88 34.7587L183.236 35.2413L184.984 33.9493L184.628 33.4667ZM183.058 34.7H179.524V35.3H183.058V34.7ZM179.524 34.7C177.633 34.7 176.269 34.2244 175.376 33.3256C174.483 32.4264 174.01 31.0529 174.01 29.148H173.41C173.41 31.1444 173.906 32.6969 174.951 33.7484C175.996 34.8003 177.539 35.3 179.524 35.3V34.7Z" fill="url(#paint0_linear_48_3437)"/>
<path d="M7.752 35C3.85067 35 1.9 33.062 1.9 29.186C1.9 25.31 3.85067 23.372 7.752 23.372H14.174V20.598C14.174 19.1287 13.4393 18.394 11.97 18.394H3.838V16.456L5.586 15.164H12.046C15.922 15.164 17.86 17.102 17.86 20.978V35H7.752ZM5.586 29.528C5.586 31.0227 6.33333 31.77 7.828 31.77H14.174V26.26H7.828C6.33333 26.26 5.586 27.0073 5.586 28.502V29.528ZM21.8099 29.148V20.978C21.8099 17.102 23.7479 15.164 27.6239 15.164H34.9579L36.7059 16.456V18.394H27.7379C26.2433 18.394 25.4959 19.1287 25.4959 20.598V29.528C25.4959 31.0227 26.2433 31.77 27.7379 31.77H36.7059V33.708L34.9579 35H27.6239C23.7479 35 21.8099 33.0493 21.8099 29.148ZM39.8908 35V6.88H43.5768V15.164H50.6448C54.5208 15.164 56.4588 17.102 56.4588 20.978V35H52.7728V20.598C52.7728 19.1287 52.0381 18.394 50.5688 18.394H43.5768V35H39.8908ZM60.4066 29.148V20.978C60.4066 17.102 62.3446 15.164 66.2206 15.164H71.1606C75.0366 15.164 76.9746 17.102 76.9746 20.978V26.45H64.0926V29.528C64.0926 31.0227 64.84 31.77 66.3346 31.77H76.2146V33.708L74.5046 35H66.2206C62.3446 35 60.4066 33.0493 60.4066 29.148ZM64.0926 23.562H73.2886V20.598C73.2886 19.1287 72.554 18.394 71.0846 18.394H66.3346C64.84 18.394 64.0926 19.1287 64.0926 20.598V23.562ZM81.0852 35V6.88H84.7712V15.164H91.8392C95.7152 15.164 97.6532 17.102 97.6532 20.978V29.148C97.6532 33.0493 95.7152 35 91.8392 35H81.0852ZM84.7712 31.77H91.7632C93.2325 31.77 93.9672 31.0227 93.9672 29.528V20.598C93.9672 19.1287 93.2325 18.394 91.7632 18.394H84.7712V31.77ZM101.453 29.148V20.978C101.453 17.102 103.391 15.164 107.267 15.164H112.207C116.083 15.164 118.021 17.102 118.021 20.978V26.45H105.139V29.528C105.139 31.0227 105.886 31.77 107.381 31.77H117.261V33.708L115.551 35H107.267C103.391 35 101.453 33.0493 101.453 29.148ZM105.139 23.562H114.335V20.598C114.335 19.1287 113.6 18.394 112.131 18.394H107.381C105.886 18.394 105.139 19.1287 105.139 20.598V23.562ZM122.093 35V30.516H126.349V35H122.093ZM130.668 35V15.164H141.422C145.298 15.164 147.236 17.102 147.236 20.978V35H143.55V20.598C143.55 19.1287 142.815 18.394 141.346 18.394H134.354V35H130.668ZM151.184 29.148V20.978C151.184 17.102 153.122 15.164 156.998 15.164H161.938C165.814 15.164 167.752 17.102 167.752 20.978V26.45H154.87V29.528C154.87 31.0227 155.617 31.77 157.112 31.77H166.992V33.708L165.282 35H156.998C153.122 35 151.184 33.0493 151.184 29.148ZM154.87 23.562H164.066V20.598C164.066 19.1287 163.331 18.394 161.862 18.394H157.112C155.617 18.394 154.87 19.1287 154.87 20.598V23.562ZM171.71 29.148V8.78H175.396V15.164H182.426V18.394H175.396V29.528C175.396 31.0227 176.143 31.77 177.638 31.77H182.806V33.708L181.058 35H177.524C173.648 35 171.71 33.0493 171.71 29.148Z" fill="url(#paint1_linear_48_3437)"/>
<defs>
<linearGradient id="paint0_linear_48_3437" x1="-31.0275" y1="24" x2="273.56" y2="24" gradientUnits="userSpaceOnUse">
<stop stop-color="#120F11"/>
<stop offset="1" stop-color="#60132C"/>
</linearGradient>
<linearGradient id="paint1_linear_48_3437" x1="-33.0275" y1="24" x2="271.56" y2="24" gradientUnits="userSpaceOnUse">
<stop stop-color="#120F11"/>
<stop offset="1" stop-color="#60132C"/>
</linearGradient>
</defs>
</svg>
