<svg width="40" height="40" viewBox="0 0 40 40" fill="none" xmlns="http://www.w3.org/2000/svg">
<path d="M36.6663 20C36.6663 19.558 36.4907 19.1341 36.1782 18.8215C35.8656 18.5089 35.4417 18.3333 34.9997 18.3333C34.5576 18.3333 34.1337 18.5089 33.8212 18.8215C33.5086 19.1341 33.333 19.558 33.333 20H36.6663ZM19.9997 6.66668C20.4417 6.66668 20.8656 6.49108 21.1782 6.17852C21.4907 5.86596 21.6663 5.44204 21.6663 5.00001C21.6663 4.55798 21.4907 4.13406 21.1782 3.8215C20.8656 3.50894 20.4417 3.33334 19.9997 3.33334V6.66668ZM32.4997 33.3333H7.49967V36.6667H32.4997V33.3333ZM6.66634 32.5V7.50001H3.33301V32.5H6.66634ZM33.333 20V32.5H36.6663V20H33.333ZM7.49967 6.66668H19.9997V3.33334H7.49967V6.66668ZM7.49967 33.3333C7.27866 33.3333 7.0667 33.2455 6.91042 33.0893C6.75414 32.933 6.66634 32.721 6.66634 32.5H3.33301C3.33301 33.6051 3.77199 34.6649 4.5534 35.4463C5.3348 36.2277 6.39461 36.6667 7.49967 36.6667V33.3333ZM32.4997 36.6667C33.6047 36.6667 34.6646 36.2277 35.446 35.4463C36.2274 34.6649 36.6663 33.6051 36.6663 32.5H33.333C33.333 32.721 33.2452 32.933 33.0889 33.0893C32.9326 33.2455 32.7207 33.3333 32.4997 33.3333V36.6667ZM6.66634 7.50001C6.66634 7.279 6.75414 7.06703 6.91042 6.91075C7.0667 6.75447 7.27866 6.66668 7.49967 6.66668V3.33334C6.39461 3.33334 5.3348 3.77233 4.5534 4.55373C3.77199 5.33513 3.33301 6.39494 3.33301 7.50001H6.66634Z" fill="#FFF1FA" fill-opacity="0.8"/>
<path d="M5 29.1667L13.9108 20.9983C14.2112 20.7231 14.6019 20.5673 15.0093 20.5606C15.4166 20.5538 15.8124 20.6965 16.1217 20.9617L26.6667 30M23.3333 25.8333L27.3108 21.8558C27.5945 21.5719 27.9711 21.4 28.3715 21.3715C28.7718 21.343 29.169 21.46 29.49 21.7008L35 25.8333M25 10H35M30 5V15" stroke="#FFF1FA" stroke-opacity="0.8" stroke-width="2.33333" stroke-linecap="round" stroke-linejoin="round"/>
</svg>
