<svg width="24" height="32" viewBox="0 0 24 32" fill="none" xmlns="http://www.w3.org/2000/svg">
<path d="M11.9997 0.333344C13.3258 0.333344 14.5975 0.860128 15.5352 1.79781C16.4729 2.73549 16.9997 4.00726 16.9997 5.33334V15.3333C16.9997 16.6594 16.4729 17.9312 15.5352 18.8689C14.5975 19.8066 13.3258 20.3333 11.9997 20.3333C10.6736 20.3333 9.40182 19.8066 8.46414 18.8689C7.52646 17.9312 6.99967 16.6594 6.99967 15.3333V5.33334C6.99967 4.00726 7.52646 2.73549 8.46414 1.79781C9.40182 0.860128 10.6736 0.333344 11.9997 0.333344ZM23.6663 15.3333C23.6663 21.2167 19.3163 26.0667 13.6663 26.8833V32H10.333V26.8833C4.68301 26.0667 0.333008 21.2167 0.333008 15.3333H3.66634C3.66634 17.5435 4.54431 19.6631 6.10712 21.2259C7.66992 22.7887 9.78954 23.6667 11.9997 23.6667C14.2098 23.6667 16.3294 22.7887 17.8922 21.2259C19.455 19.6631 20.333 17.5435 20.333 15.3333H23.6663Z" fill="#FFF1FA" fill-opacity="0.8"/>
</svg>
